<svg width="621" height="207" xmlns="http://www.w3.org/2000/svg">
 <!-- Created with Method Draw - http://github.com/duopixel/Method-Draw/ -->

 <g>
  <title>background</title>
  <rect x="-1" y="-1" width="623" height="209" id="canvas_background" fill="#fff"/>
  <g id="canvasGrid" display="none">
   <rect id="svg_1" width="100%" height="100%" x="0" y="0" stroke-width="0" fill="url(#gridpattern)"/>
  </g>
 </g>
 <g>
  <title>Layer 1</title>
  <path fill="#fff" stroke="#339add" stroke-width="1.5" d="m14.75,51.10571l26.9547,-26.35571l108.04529,0l0,132l-134.99999,0l0,-105.64429z" id="svg_2"/>
  <path fill="#fff" stroke="#339add" stroke-width="1.5" d="m29.74999,63.1057l26.95471,-26.3557l108.04528,0l0,132l-134.99999,0l0,-105.6443z" id="svg_3"/>
  <path fill="#fff" stroke="#339add" stroke-width="1.5" d="m45.74999,76.1057l26.95471,-26.3557l108.04528,0l0,132l-134.99999,0l0,-105.6443z" id="svg_4"/>
  <text fill="#000000" stroke="#339add" stroke-width="0" fill-opacity="null" x="71.907495" y="104.879758" id="svg_5" font-size="24" font-family="Droid Serif, Arial, sans-serif" text-anchor="start" xml:space="preserve">C++</text>
  <text fill="#000000" stroke="#339add" stroke-width="0" fill-opacity="null" x="71.907495" y="143.879758" id="svg_6" font-size="24" font-family="Droid Serif, Arial, sans-serif" text-anchor="start" xml:space="preserve">Headers</text>
  <path fill="#2c7fb8" stroke-width="1.5" d="m386.29605,109.30545l-25.51871,-7.30625l0,8.12971l-45.79697,0c-8.01875,0.29697 -21.86336,-4.21201 -37.25662,-10.19509c-15.50083,-5.67538 -33.216,-12.63869 -56.93567,-12.82499l-15.95838,0l0,12.95991l15.95838,0c11.61672,-0.16739 25.94088,4.36051 41.1911,10.20333c5.68443,2.0411 11.41791,4.29292 17.49322,6.32601c-6.07531,2.03577 -11.80198,4.29028 -17.49322,6.33143c-15.25022,5.82655 -29.57438,10.36524 -41.1761,10.20051l-15.97338,0l0,12.97881l15.96518,0c23.66929,-0.1646 41.39131,-7.14678 56.94251,-12.81408c15.39464,-5.98319 29.23249,-10.4948 37.258,-10.20322l45.78197,0l0,8.12964l25.51871,-7.29804l25.53363,-7.30341l-25.53363,-7.31426l-0.00002,-0.00001z" id="svg_7" stroke="#339add"/>
  <text fill="#000000" stroke="#339add" stroke-width="0" x="235.907495" y="71.879758" id="svg_8" font-size="24" font-family="Droid Serif, Arial, sans-serif" text-anchor="start" xml:space="preserve">robotpy-build</text>
  <path fill="#fff" stroke="#339add" stroke-width="1.5" d="m426.50001,108.34142l37.07144,-71.5l98.85715,0l37.07143,71.5l-37.07143,71.5l-98.85715,0l-37.07144,-71.5z" id="svg_9"/>
  <text fill="#000000" stroke="#339add" stroke-width="0" x="478.907495" y="92.879758" id="svg_10" font-size="24" font-family="Droid Serif, Arial, sans-serif" text-anchor="start" xml:space="preserve">python</text>
  <text fill="#000000" stroke="#339add" stroke-width="0" x="481.907495" y="127.879758" id="svg_11" font-size="24" font-family="Droid Serif, Arial, sans-serif" text-anchor="start" xml:space="preserve">wheel</text>
 </g>
</svg>